<svg width="185" height="28" viewBox="0 0 185 28" fill="none" xmlns="http://www.w3.org/2000/svg">
<path d="M178.717 22.16C177.933 22.16 177.181 22.008 176.461 21.704C175.757 21.4 175.125 20.984 174.565 20.456C174.005 19.912 173.565 19.28 173.245 18.56C172.925 17.84 172.765 17.056 172.765 16.208C172.765 15.376 172.917 14.608 173.221 13.904C173.525 13.184 173.949 12.552 174.493 12.008C175.037 11.464 175.661 11.04 176.365 10.736C177.085 10.416 177.853 10.256 178.669 10.256C179.773 10.256 180.765 10.52 181.645 11.048C182.541 11.56 183.253 12.264 183.781 13.16C184.309 14.056 184.573 15.064 184.573 16.184C184.573 17.064 184.413 17.872 184.093 18.608C183.773 19.328 183.341 19.952 182.797 20.48C182.253 21.008 181.629 21.424 180.925 21.728C180.221 22.016 179.485 22.16 178.717 22.16ZM178.669 20.072C179.341 20.072 179.965 19.904 180.541 19.568C181.117 19.232 181.581 18.768 181.933 18.176C182.285 17.584 182.461 16.912 182.461 16.16C182.461 15.408 182.293 14.744 181.957 14.168C181.637 13.592 181.189 13.144 180.613 12.824C180.037 12.504 179.381 12.344 178.645 12.344C177.941 12.344 177.301 12.512 176.725 12.848C176.165 13.184 175.709 13.64 175.357 14.216C175.021 14.792 174.853 15.448 174.853 16.184C174.853 16.952 175.029 17.632 175.381 18.224C175.733 18.8 176.197 19.256 176.773 19.592C177.365 19.912 177.997 20.072 178.669 20.072Z" fill="#5864FF"/>
<path d="M167.517 22.04C167.229 22.04 167.005 21.992 166.845 21.896C166.701 21.8 166.605 21.672 166.557 21.512C166.509 21.336 166.485 21.136 166.485 20.912V8.864C166.485 8.224 166.557 7.664 166.701 7.184C166.845 6.704 167.085 6.304 167.421 5.984C167.757 5.664 168.181 5.424 168.693 5.264C169.221 5.088 169.869 5 170.637 5C170.845 5 171.029 5.024 171.189 5.072C171.365 5.104 171.493 5.2 171.573 5.36C171.669 5.504 171.717 5.728 171.717 6.032C171.717 6.336 171.669 6.568 171.573 6.728C171.477 6.872 171.349 6.968 171.189 7.016C171.029 7.064 170.837 7.088 170.613 7.088C170.245 7.088 169.925 7.104 169.653 7.136C169.397 7.168 169.197 7.24 169.053 7.352C168.909 7.464 168.797 7.64 168.717 7.88C168.653 8.104 168.621 8.416 168.621 8.816V20.984C168.621 21.192 168.589 21.376 168.525 21.536C168.477 21.696 168.373 21.816 168.213 21.896C168.069 21.992 167.837 22.04 167.517 22.04ZM165.261 10.664L167.565 10.688L170.901 10.64C171.125 10.64 171.317 10.664 171.477 10.712C171.637 10.744 171.757 10.84 171.837 11C171.933 11.144 171.981 11.368 171.981 11.672C171.981 11.976 171.941 12.208 171.861 12.368C171.781 12.512 171.661 12.608 171.501 12.656C171.341 12.704 171.149 12.728 170.925 12.728L167.637 12.68L165.213 12.704C164.877 12.704 164.645 12.624 164.517 12.464C164.405 12.304 164.349 12.04 164.349 11.672C164.349 11.32 164.421 11.064 164.565 10.904C164.709 10.744 164.941 10.664 165.261 10.664Z" fill="#5864FF"/>
<path d="M153.307 21.992C153.003 21.992 152.771 21.944 152.611 21.848C152.467 21.768 152.371 21.648 152.323 21.488C152.291 21.328 152.275 21.136 152.275 20.912V11.384C152.275 11.176 152.299 11 152.347 10.856C152.395 10.712 152.491 10.6 152.635 10.52C152.795 10.44 153.027 10.4 153.331 10.4C153.571 10.4 153.754 10.432 153.882 10.496C154.026 10.544 154.123 10.616 154.171 10.712C154.235 10.808 154.275 10.912 154.291 11.024C154.307 11.136 154.314 11.24 154.314 11.336L154.267 12.44C154.427 12.168 154.627 11.912 154.867 11.672C155.107 11.416 155.387 11.192 155.707 11C156.027 10.792 156.371 10.632 156.739 10.52C157.123 10.408 157.531 10.352 157.963 10.352C158.667 10.352 159.315 10.48 159.907 10.736C160.499 10.976 161.003 11.336 161.419 11.816C161.851 12.28 162.179 12.84 162.403 13.496C162.643 14.152 162.763 14.896 162.763 15.728V20.936C162.763 21.16 162.739 21.352 162.691 21.512C162.659 21.672 162.563 21.792 162.403 21.872C162.259 21.952 162.035 21.992 161.731 21.992C161.411 21.992 161.171 21.944 161.011 21.848C160.867 21.768 160.771 21.648 160.723 21.488C160.675 21.328 160.651 21.136 160.651 20.912V15.704C160.651 15.032 160.539 14.448 160.315 13.952C160.091 13.456 159.755 13.072 159.307 12.8C158.859 12.512 158.291 12.368 157.603 12.368C156.947 12.368 156.371 12.512 155.875 12.8C155.395 13.072 155.019 13.456 154.747 13.952C154.491 14.448 154.363 15.032 154.363 15.704V20.936C154.363 21.16 154.339 21.352 154.291 21.512C154.243 21.672 154.139 21.792 153.979 21.872C153.835 21.952 153.611 21.992 153.307 21.992Z" fill="#5864FF"/>
<path d="M148.127 22.016C147.807 22.016 147.567 21.968 147.407 21.872C147.263 21.792 147.167 21.672 147.119 21.512C147.071 21.336 147.047 21.136 147.047 20.912V6.344C147.047 6.12 147.071 5.928 147.119 5.768C147.183 5.608 147.287 5.488 147.431 5.408C147.591 5.312 147.831 5.264 148.151 5.264C148.471 5.264 148.703 5.312 148.847 5.408C149.007 5.488 149.103 5.608 149.135 5.768C149.183 5.928 149.207 6.128 149.207 6.368V20.936C149.207 21.16 149.183 21.352 149.135 21.512C149.087 21.672 148.983 21.792 148.823 21.872C148.679 21.968 148.447 22.016 148.127 22.016Z" fill="#5864FF"/>
<path d="M138.353 22.016C138.049 22.016 137.817 21.968 137.657 21.872C137.513 21.792 137.417 21.672 137.369 21.512C137.337 21.336 137.321 21.136 137.321 20.912V11.456C137.321 11.216 137.345 11.016 137.393 10.856C137.441 10.696 137.537 10.584 137.681 10.52C137.825 10.44 138.057 10.4 138.377 10.4C138.665 10.4 138.881 10.44 139.025 10.52C139.185 10.584 139.289 10.688 139.337 10.832C139.401 10.96 139.433 11.112 139.433 11.288L139.337 12.008C139.449 11.8 139.577 11.592 139.721 11.384C139.881 11.176 140.073 10.992 140.297 10.832C140.537 10.656 140.817 10.512 141.137 10.4C141.473 10.288 141.881 10.232 142.361 10.232C142.601 10.232 142.825 10.256 143.033 10.304C143.257 10.336 143.465 10.392 143.657 10.472C143.865 10.552 144.041 10.648 144.185 10.76C144.329 10.856 144.441 10.968 144.521 11.096C144.617 11.208 144.665 11.344 144.665 11.504C144.665 11.856 144.553 12.16 144.329 12.416C144.105 12.656 143.873 12.776 143.633 12.776C143.425 12.776 143.273 12.752 143.177 12.704C143.081 12.64 142.985 12.576 142.889 12.512C142.809 12.448 142.689 12.392 142.529 12.344C142.369 12.28 142.113 12.248 141.761 12.248C141.521 12.248 141.265 12.296 140.993 12.392C140.737 12.488 140.489 12.632 140.249 12.824C140.009 13 139.809 13.232 139.649 13.52C139.505 13.808 139.433 14.144 139.433 14.528V20.96C139.433 21.184 139.409 21.376 139.361 21.536C139.313 21.696 139.209 21.816 139.049 21.896C138.905 21.976 138.673 22.016 138.353 22.016Z" fill="#5864FF"/>
<path d="M129.808 22.136C128.848 22.136 127.992 21.976 127.24 21.656C126.488 21.336 125.848 20.904 125.32 20.36C124.808 19.8 124.416 19.16 124.144 18.44C123.872 17.72 123.736 16.944 123.736 16.112C123.736 15.008 123.992 14.024 124.504 13.16C125.016 12.296 125.72 11.616 126.616 11.12C127.528 10.608 128.568 10.352 129.736 10.352C130.536 10.352 131.248 10.48 131.872 10.736C132.512 10.976 133.056 11.304 133.504 11.72C133.952 12.136 134.296 12.6 134.536 13.112C134.776 13.624 134.896 14.136 134.896 14.648C134.896 15.464 134.704 16.04 134.32 16.376C133.936 16.696 133.464 16.856 132.904 16.856H125.968C125.952 17.56 126.136 18.168 126.52 18.68C126.92 19.176 127.416 19.56 128.008 19.832C128.616 20.104 129.224 20.24 129.832 20.24C130.28 20.24 130.664 20.216 130.984 20.168C131.304 20.12 131.584 20.056 131.824 19.976C132.064 19.896 132.272 19.816 132.448 19.736C132.624 19.656 132.776 19.576 132.904 19.496C133.048 19.416 133.184 19.36 133.312 19.328C133.456 19.296 133.592 19.312 133.72 19.376C133.864 19.424 133.976 19.528 134.056 19.688C134.152 19.816 134.216 19.936 134.248 20.048C134.28 20.16 134.296 20.28 134.296 20.408C134.296 20.632 134.104 20.88 133.72 21.152C133.336 21.424 132.8 21.656 132.112 21.848C131.44 22.04 130.672 22.136 129.808 22.136ZM125.968 15.44H131.992C132.296 15.44 132.52 15.4 132.664 15.32C132.824 15.24 132.904 15.024 132.904 14.672C132.904 14.224 132.768 13.824 132.496 13.472C132.224 13.104 131.848 12.808 131.368 12.584C130.904 12.36 130.368 12.248 129.76 12.248C129.056 12.248 128.408 12.392 127.816 12.68C127.24 12.952 126.784 13.328 126.448 13.808C126.112 14.288 125.952 14.832 125.968 15.44Z" fill="#5864FF"/>
<path d="M114.272 26.672C113.888 26.512 113.664 26.328 113.6 26.12C113.536 25.912 113.592 25.624 113.768 25.256L120.128 10.976C120.304 10.608 120.488 10.384 120.68 10.304C120.888 10.208 121.176 10.24 121.544 10.4C121.928 10.576 122.144 10.768 122.192 10.976C122.256 11.184 122.208 11.464 122.048 11.816L115.64 26.168C115.48 26.536 115.304 26.752 115.112 26.816C114.92 26.88 114.64 26.832 114.272 26.672ZM116.648 20.48L111.152 12.008C110.944 11.688 110.864 11.424 110.912 11.216C110.96 10.992 111.144 10.776 111.464 10.568C111.816 10.344 112.096 10.264 112.304 10.328C112.528 10.376 112.752 10.56 112.976 10.88L117.632 18.2L116.648 20.48Z" fill="#5864FF"/>
<path d="M104.257 22.16C103.473 22.16 102.721 22.008 102.001 21.704C101.297 21.4 100.665 20.984 100.105 20.456C99.5445 19.912 99.1045 19.28 98.7845 18.56C98.4645 17.84 98.3045 17.056 98.3045 16.208C98.3045 15.376 98.4565 14.608 98.7605 13.904C99.0645 13.184 99.4885 12.552 100.033 12.008C100.577 11.464 101.201 11.04 101.905 10.736C102.625 10.416 103.393 10.256 104.209 10.256C105.313 10.256 106.305 10.52 107.185 11.048C108.081 11.56 108.793 12.264 109.321 13.16C109.849 14.056 110.113 15.064 110.113 16.184C110.113 17.064 109.952 17.872 109.632 18.608C109.312 19.328 108.881 19.952 108.337 20.48C107.793 21.008 107.169 21.424 106.465 21.728C105.761 22.016 105.025 22.16 104.257 22.16ZM104.209 20.072C104.881 20.072 105.505 19.904 106.081 19.568C106.657 19.232 107.121 18.768 107.473 18.176C107.825 17.584 108.001 16.912 108.001 16.16C108.001 15.408 107.833 14.744 107.497 14.168C107.177 13.592 106.729 13.144 106.153 12.824C105.577 12.504 104.921 12.344 104.185 12.344C103.481 12.344 102.841 12.512 102.265 12.848C101.705 13.184 101.249 13.64 100.897 14.216C100.561 14.792 100.393 15.448 100.393 16.184C100.393 16.952 100.569 17.632 100.921 18.224C101.273 18.8 101.737 19.256 102.313 19.592C102.905 19.912 103.537 20.072 104.209 20.072Z" fill="#5864FF"/>
<path d="M95.8985 22.016C95.3865 22.016 94.9225 21.968 94.5065 21.872C94.1065 21.792 93.7545 21.656 93.4505 21.464C93.1465 21.272 92.8905 21.024 92.6825 20.72C92.4905 20.416 92.3465 20.048 92.2505 19.616C92.1705 19.184 92.1305 18.68 92.1305 18.104V6.104C92.1305 5.864 92.1465 5.664 92.1785 5.504C92.2265 5.344 92.3305 5.224 92.4905 5.144C92.6505 5.048 92.8745 5 93.1625 5C93.4825 5 93.7145 5.04 93.8585 5.12C94.0185 5.2 94.1225 5.32 94.1705 5.48C94.2185 5.64 94.2425 5.832 94.2425 6.056V18.08C94.2425 18.4 94.2745 18.68 94.3385 18.92C94.4025 19.144 94.4985 19.336 94.6265 19.496C94.7705 19.656 94.9465 19.768 95.1545 19.832C95.3625 19.896 95.6105 19.928 95.8985 19.928C96.0905 19.928 96.2505 19.952 96.3785 20C96.5225 20.048 96.6345 20.144 96.7145 20.288C96.7945 20.432 96.8345 20.656 96.8345 20.96C96.8345 21.28 96.7945 21.52 96.7145 21.68C96.6345 21.824 96.5225 21.912 96.3785 21.944C96.2505 21.992 96.0905 22.016 95.8985 22.016Z" fill="#5864FF"/>
<path d="M84.3493 21.92C83.5653 21.92 82.8533 21.776 82.2133 21.488C81.5733 21.2 81.0293 20.8 80.5813 20.288C80.1333 19.76 79.7813 19.144 79.5253 18.44C79.2853 17.736 79.1733 16.96 79.1893 16.112C79.1893 15.28 79.3093 14.512 79.5493 13.808C79.7893 13.104 80.1333 12.496 80.5813 11.984C81.0453 11.456 81.5893 11.056 82.2133 10.784C82.8533 10.496 83.5653 10.352 84.3493 10.352C85.0853 10.352 85.7733 10.496 86.4133 10.784C87.0693 11.072 87.6373 11.48 88.1173 12.008C88.6133 12.52 88.9973 13.136 89.2693 13.856C89.5573 14.576 89.7013 15.352 89.7013 16.184C89.7013 17.016 89.5573 17.784 89.2693 18.488C88.9973 19.192 88.6133 19.8 88.1173 20.312C87.6373 20.824 87.0693 21.224 86.4133 21.512C85.7733 21.784 85.0853 21.92 84.3493 21.92ZM79.3573 26.744C79.0533 26.744 78.8213 26.696 78.6613 26.6C78.5173 26.52 78.4133 26.4 78.3493 26.24C78.3013 26.08 78.2773 25.888 78.2773 25.664V11.48C78.2773 11.256 78.3013 11.064 78.3493 10.904C78.3973 10.744 78.4933 10.624 78.6373 10.544C78.7973 10.448 79.0293 10.4 79.3333 10.4C79.6853 10.4 79.9413 10.456 80.1013 10.568C80.2773 10.68 80.3813 10.88 80.4133 11.168V25.64C80.4293 25.864 80.4133 26.056 80.3653 26.216C80.3173 26.392 80.2133 26.52 80.0533 26.6C79.9093 26.696 79.6773 26.744 79.3573 26.744ZM84.0373 19.952C84.7093 19.952 85.3173 19.792 85.8613 19.472C86.4053 19.136 86.8293 18.68 87.1333 18.104C87.4533 17.528 87.6133 16.872 87.6133 16.136C87.6133 15.384 87.4533 14.728 87.1333 14.168C86.8293 13.608 86.4053 13.176 85.8613 12.872C85.3333 12.552 84.7253 12.392 84.0373 12.392C83.3653 12.392 82.7573 12.552 82.2133 12.872C81.6853 13.192 81.2613 13.632 80.9413 14.192C80.6373 14.752 80.4853 15.4 80.4853 16.136C80.4853 16.872 80.6373 17.528 80.9413 18.104C81.2613 18.68 81.6853 19.136 82.2133 19.472C82.7573 19.792 83.3653 19.952 84.0373 19.952Z" fill="#5864FF"/>
<path d="M59.6731 22.016C59.3691 22.016 59.1451 21.968 59.0011 21.872C58.8571 21.776 58.7611 21.648 58.7131 21.488C58.6651 21.328 58.6411 21.136 58.6411 20.912V11.408C58.6411 11.184 58.6651 11 58.7131 10.856C58.7611 10.712 58.8571 10.6 59.0011 10.52C59.1611 10.44 59.3931 10.4 59.6971 10.4C60.0491 10.4 60.2971 10.472 60.4411 10.616C60.6011 10.744 60.6811 10.976 60.6811 11.312L60.5851 12.344C60.6971 12.104 60.8651 11.864 61.0891 11.624C61.3131 11.384 61.5771 11.168 61.8811 10.976C62.2011 10.784 62.5371 10.632 62.8891 10.52C63.2411 10.408 63.6011 10.352 63.9691 10.352C64.5291 10.352 65.0251 10.456 65.4571 10.664C65.9051 10.856 66.3051 11.136 66.6571 11.504C67.0091 11.872 67.3051 12.328 67.5451 12.872C67.8651 12.344 68.2011 11.896 68.5531 11.528C68.9211 11.144 69.3371 10.856 69.8011 10.664C70.2651 10.456 70.7851 10.352 71.3611 10.352C72.2731 10.352 73.0331 10.584 73.6411 11.048C74.2651 11.496 74.7291 12.136 75.0331 12.968C75.3531 13.784 75.5131 14.768 75.5131 15.92V20.936C75.5131 21.16 75.4891 21.352 75.4411 21.512C75.4091 21.672 75.3131 21.792 75.1531 21.872C75.0091 21.968 74.7771 22.016 74.4571 22.016C74.1531 22.016 73.9211 21.968 73.7611 21.872C73.6171 21.776 73.5211 21.648 73.4731 21.488C73.4251 21.328 73.4011 21.136 73.4011 20.912V15.896C73.4011 15.176 73.3131 14.56 73.1371 14.048C72.9771 13.52 72.7211 13.112 72.3691 12.824C72.0331 12.536 71.5931 12.392 71.0491 12.392C70.4731 12.392 69.9611 12.536 69.5131 12.824C69.0811 13.096 68.7451 13.496 68.5051 14.024C68.2651 14.552 68.1451 15.176 68.1451 15.896V20.96C68.1451 21.2 68.0971 21.408 68.0011 21.584C67.9051 21.76 67.7611 21.88 67.5691 21.944C67.3771 22.024 67.1451 22.04 66.8731 21.992C66.6171 21.96 66.4251 21.896 66.2971 21.8C66.1691 21.704 66.0891 21.584 66.0571 21.44C66.0251 21.28 66.0091 21.104 66.0091 20.912V15.896C66.0091 15.176 65.9211 14.56 65.7451 14.048C65.5851 13.52 65.3291 13.112 64.9771 12.824C64.6411 12.536 64.2011 12.392 63.6571 12.392C63.0811 12.392 62.5691 12.544 62.1211 12.848C61.6891 13.136 61.3531 13.544 61.1131 14.072C60.8731 14.6 60.7531 15.208 60.7531 15.896V20.936C60.7531 21.16 60.7291 21.352 60.6811 21.512C60.6331 21.672 60.5291 21.792 60.3691 21.872C60.2251 21.968 59.9931 22.016 59.6731 22.016Z" fill="#5864FF"/>
<path d="M45.08 22.016C44.76 22.016 44.52 21.968 44.36 21.872C44.216 21.792 44.12 21.672 44.072 21.512C44.024 21.336 44 21.136 44 20.912V6.344C44 5.928 44.08 5.648 44.24 5.504C44.416 5.344 44.72 5.264 45.152 5.264H54.8C55.024 5.264 55.216 5.288 55.376 5.336C55.536 5.384 55.656 5.488 55.736 5.648C55.816 5.808 55.856 6.048 55.856 6.368C55.856 6.688 55.808 6.928 55.712 7.088C55.632 7.232 55.512 7.328 55.352 7.376C55.192 7.424 55 7.448 54.776 7.448H46.16V12.416H52.16C52.384 12.416 52.568 12.44 52.712 12.488C52.872 12.536 52.992 12.632 53.072 12.776C53.152 12.92 53.192 13.144 53.192 13.448C53.192 13.736 53.152 13.952 53.072 14.096C52.992 14.24 52.872 14.336 52.712 14.384C52.552 14.416 52.352 14.432 52.112 14.432H46.16V19.856H54.8C55.024 19.856 55.216 19.88 55.376 19.928C55.536 19.976 55.656 20.08 55.736 20.24C55.816 20.384 55.856 20.616 55.856 20.936C55.856 21.256 55.808 21.496 55.712 21.656C55.632 21.8 55.512 21.896 55.352 21.944C55.192 21.992 55 22.016 54.776 22.016H45.08Z" fill="#5864FF"/>
<path d="M22.8452 10.7196L17.6318 15.7573L16.3431 14.4686C15.6987 13.8242 14.7029 13.8242 14.0586 14.4686C13.4142 15.1129 13.4142 16.1088 14.0586 16.7531L16.3431 19.0376C16.6945 19.3891 17.1632 19.5063 17.6318 19.5063C18.1004 19.5063 18.6276 19.3305 19.0962 19.0376L25.1297 13.1799C25.774 12.5355 25.774 11.5397 25.1297 10.8954C24.4268 10.251 23.4895 10.0753 22.8452 10.7196Z" fill="#5864FF"/>
<path d="M34.3849 8.78661C32.7448 6.97071 30.4603 5.68201 28.0586 5.21339C26.7699 3.1046 24.6611 1.46443 22.3766 0.644351C21.2636 0.175732 20.092 0 18.8033 0C12.9456 0 8.0251 4.56904 7.73222 10.251C3.28033 10.8954 0 14.6444 0 19.0377C0 23.9582 4.10042 28 8.96234 28H25.8912C32.2762 28 37.4895 22.7866 37.4895 16.4602C37.4895 13.6485 36.3766 10.8954 34.3849 8.78661ZM25.7741 24.8954H8.78661C5.50628 24.8954 3.1046 22.4351 3.1046 19.2134C3.1046 15.9916 5.74059 13.5314 8.78661 13.5314H10.7197V11.2469C10.7197 6.85356 14.2929 3.28033 18.6862 3.28033C19.682 3.28033 20.5021 3.45607 21.3222 3.74895C23.1381 4.3933 24.7197 5.68201 25.7155 7.49791L26.1841 8.31799L27.0042 8.49372C28.9372 8.66946 30.9289 9.60669 32.2176 11.1297C33.682 12.7699 34.5021 14.7029 34.5021 16.8117C34.2092 21.1464 30.4603 24.8954 25.7741 24.8954Z" fill="#5864FF"/>
</svg>
